<svg width="124" height="27" viewBox="0 0 124 27" fill="none" xmlns="http://www.w3.org/2000/svg">
<path d="M28.2808 4.59405C28.2262 4.758 28.1715 4.92194 28.1715 5.11321C28.1715 5.63238 28.5541 5.90563 29.2918 5.90563H34.0736C35.8497 5.90563 36.888 6.53409 37.134 7.79101C37.1886 8.00961 37.2159 8.25553 37.2159 8.50145C37.2159 9.04794 37.0793 9.73105 36.8334 10.5508H36.8607L36.5875 11.4252C36.2049 12.5728 35.6311 13.4199 34.8934 13.9663C34.1283 14.5128 33.1719 14.7861 31.997 14.7861H20.2201L20.8213 12.928L22.0782 12.7367L20.9032 12.7094H20.6573H20.3294L19.2911 12.6821H18.9905L13.0338 12.5182L0 12.1083H21.0945L21.2858 11.4798H30.5488C30.9586 11.4798 31.2865 11.4252 31.5324 11.2885C31.751 11.1519 31.9423 10.906 32.0516 10.5508H32.0243C32.0789 10.3868 32.1336 10.1956 32.1336 10.0316C32.1336 9.51246 31.751 9.23921 31.0133 9.23921H26.86C25.685 9.23921 24.7833 8.96597 24.1548 8.4468C23.9362 8.25553 23.745 8.03693 23.581 7.79101C23.3078 7.35382 23.1985 6.83466 23.1985 6.23352C23.1985 6.06957 23.1985 5.8783 23.2258 5.68703L24.756 5.30449L23.5537 5.24984H23.3351L22.4061 5.22251L9.29032 4.67603H23.4717C23.4717 4.6487 23.4991 4.62138 23.4991 4.59405L23.7176 3.88361C23.8543 3.44642 24.0455 3.03656 24.2368 2.68134L25.3844 2.49007L24.3734 2.46274L21.641 2.38077L0.218596 1.80695H24.8926C25.0565 1.64301 25.2205 1.47906 25.4118 1.34244C26.1769 0.79595 27.1332 0.522705 28.3082 0.522705H40.0304L38.9647 3.82896H29.7017C29.2372 3.82896 28.9093 3.85629 28.718 3.93827C28.5268 4.02024 28.3901 4.23883 28.2808 4.59405Z" fill="url(#paint0_linear_2221_2517)"/>
<path d="M57.2721 3.50105C57.2721 4.04754 57.1902 4.59403 56.9989 5.16785L56.1518 7.81832L56.1245 7.95494L53.8839 14.8407H42.4623C41.2873 14.8407 40.3856 14.5675 39.7571 14.0483C39.1287 13.5291 38.8008 12.7914 38.8008 11.8623C38.8008 11.3432 38.9101 10.7967 39.1014 10.1956L39.3746 9.32117C39.5659 8.74735 39.8118 8.25551 40.085 7.81832C40.3583 7.40845 40.7135 7.05324 41.0687 6.77999C41.8338 6.2335 42.7902 5.96026 43.9651 5.96026H51.9165L50.0311 7.84564L48.5829 9.26652H45.304C44.8941 9.26652 44.5662 9.32117 44.3203 9.45779C44.1017 9.59441 43.9105 9.84033 43.8012 10.1956C43.7465 10.3595 43.6919 10.5234 43.6919 10.7147C43.6919 11.2339 44.0744 11.5071 44.8122 11.5071H50.1131L51.2881 7.92762L51.3154 7.791L51.8346 6.15153C51.9165 5.87828 51.9712 5.60504 51.9712 5.33179C51.9712 4.86728 51.8072 4.48474 51.4793 4.21149C51.1514 3.93825 50.7143 3.80162 50.1131 3.80162H41.1507L42.2163 0.495361H53.556C54.731 0.495361 55.6327 0.768604 56.2611 1.28777C56.8896 1.80693 57.2721 2.5447 57.2721 3.50105Z" fill="url(#paint1_linear_2221_2517)"/>
<path d="M76.0987 11.5071L73.093 14.8134H70.3332C69.1583 14.8134 68.2566 14.5401 67.6281 14.021C66.9996 13.5018 66.6718 12.7641 66.6718 11.835C66.6718 11.2885 66.7537 10.742 66.945 10.1682L67.7101 7.791L70.06 0.495361H74.8691L72.5192 7.791L72.082 9.15722C72 9.43046 71.9454 9.70371 71.9454 9.97695C71.9454 10.4415 72.1093 10.824 72.4372 11.0973C72.7651 11.3705 73.2023 11.5071 73.8034 11.5071H76.0987Z" fill="url(#paint2_linear_2221_2517)"/>
<path d="M84.4872 0.522705L82.11 7.79101L79.8421 14.8134H75.033L77.3009 7.79101L79.6508 0.522705H84.4872Z" fill="url(#paint3_linear_2221_2517)"/>
<path d="M66.5627 11.5071L63.557 14.8134H60.7972C59.6223 14.8134 58.7206 14.5401 58.0921 14.021C57.4636 13.5018 57.1357 12.7641 57.1357 11.835C57.1357 11.2885 57.2177 10.742 57.409 10.1682L58.1741 7.791L60.524 0.495361H65.3331L62.9832 7.791L62.546 9.15722C62.464 9.43046 62.4094 9.70371 62.4094 9.97695C62.4094 10.4415 62.5733 10.824 62.9012 11.0973C63.2291 11.3705 63.6663 11.5071 64.2674 11.5071H66.5627Z" fill="url(#paint4_linear_2221_2517)"/>
<path d="M101.62 3.50105C101.62 4.04754 101.538 4.59403 101.347 5.16785L100.499 7.81832L100.472 7.95494L98.2316 14.8407H86.8099C85.635 14.8407 84.7333 14.5675 84.1048 14.0483C83.4763 13.5291 83.1484 12.7914 83.1484 11.8623C83.1484 11.3432 83.2577 10.7967 83.449 10.1956L83.7223 9.32117C83.9135 8.74735 84.1594 8.25551 84.4327 7.81832C84.7059 7.40845 85.0612 7.05324 85.4164 6.77999C86.1815 6.2335 87.1378 5.96026 88.3128 5.96026H96.2915L94.4061 7.84564L92.9579 9.26652H89.679C89.2691 9.26652 88.9412 9.32117 88.6953 9.45779C88.4767 9.59441 88.2854 9.84033 88.1761 10.1956C88.1215 10.3595 88.0668 10.5234 88.0668 10.7147C88.0668 11.2339 88.4494 11.5071 89.1871 11.5071H94.4881L95.6631 7.92762L95.6904 7.791L96.2095 6.15153C96.2915 5.87828 96.3462 5.60504 96.3462 5.33179C96.3462 4.86728 96.1822 4.48474 95.8543 4.21149C95.5264 3.93825 95.0892 3.80162 94.4881 3.80162H85.5257L86.5913 0.495361H97.931C99.1059 0.495361 100.008 0.768604 100.636 1.28777C101.319 1.83426 101.62 2.5447 101.62 3.50105Z" fill="url(#paint5_linear_2221_2517)"/>
<path d="M117.14 0.522687L116.047 3.82895H110.391C109.216 3.82895 108.451 4.37544 108.096 5.49574L107.358 7.791L105.145 14.7861H100.254L102.522 7.791L103.806 3.88359C104.161 2.76329 104.735 1.91624 105.5 1.34242C106.265 0.795932 107.222 0.495361 108.424 0.495361H117.14V0.522687Z" fill="#0063AB"/>
<path d="M122.905 3.82886L121.621 7.79091L119.353 14.8133H114.544L116.839 7.79091L117.03 7.16244L122.905 3.82886Z" fill="url(#paint6_linear_2221_2517)"/>
<path d="M119.19 0.522705L118.124 3.82896H122.906L123.999 0.522705H119.19Z" fill="url(#paint7_linear_2221_2517)"/>
<path d="M36.833 10.5508L36.5598 11.4252C36.1772 12.5728 35.6034 13.4199 34.8656 13.9663C34.1006 14.5128 33.1442 14.7861 31.9693 14.7861H20.2197L20.8209 12.928L22.0778 12.7367L20.9028 12.7094L21.0941 12.1083L21.2854 11.4798H30.5484C30.9582 11.4798 31.2861 11.4252 31.5321 11.2885C31.7507 11.1519 31.9419 10.906 32.0512 10.5508H32.0239C32.0786 10.3868 32.1332 10.1956 32.1332 10.0316C32.1332 9.51246 31.7507 9.23921 31.0129 9.23921H26.8596C25.6846 9.23921 24.7829 8.96597 24.1545 8.44681C23.9359 8.25553 23.7446 8.03694 23.5806 7.79102H37.1336C37.1882 8.00961 37.2156 8.25553 37.2156 8.50145C37.2156 9.07527 37.0789 9.75838 36.833 10.5508Z" fill="#0063AB"/>
<path d="M56.1245 7.79098L56.0972 7.9276L53.8566 14.8134H42.4349C41.26 14.8134 40.3583 14.5401 39.7298 14.021C39.1013 13.5018 38.7734 12.764 38.7734 11.835C38.7734 11.3158 38.8827 10.7693 39.074 10.1682L39.3473 9.29382C39.5385 8.72001 39.7844 8.22817 40.0577 7.79098H50.0584L48.6102 9.21185H45.3313C44.9214 9.21185 44.5936 9.2665 44.3476 9.40312C44.129 9.53975 43.9378 9.78566 43.8285 10.1409C43.7738 10.3048 43.7192 10.4688 43.7192 10.66C43.7192 11.1792 44.1017 11.4525 44.8395 11.4525H50.1404L51.3154 7.87295L51.3427 7.73633H56.1245V7.79098Z" fill="#0063AB"/>
<path d="M64.2391 11.5071H66.5344L63.5287 14.8134H60.7689C59.5939 14.8134 58.6922 14.5402 58.0638 14.021C57.4353 13.5018 57.1074 12.7641 57.1074 11.835C57.1074 11.2885 57.1894 10.7421 57.3807 10.1682L58.1458 7.79102H62.9549L62.5177 9.15724C62.4357 9.43048 62.381 9.70373 62.381 9.97697C62.381 10.4415 62.545 10.824 62.8729 11.0973C63.2008 11.3705 63.6653 11.5071 64.2391 11.5071Z" fill="#0063AB"/>
<path d="M76.0978 11.5071L73.0922 14.8134H70.3324C69.1574 14.8134 68.2557 14.5402 67.6273 14.021C66.9988 13.5018 66.6709 12.7641 66.6709 11.835C66.6709 11.2885 66.7529 10.7421 66.9441 10.1682L67.7092 7.79102H72.5183L72.0811 9.15724C71.9992 9.43048 71.9445 9.70373 71.9445 9.97697C71.9445 10.4415 72.1085 10.824 72.4364 11.0973C72.7643 11.3705 73.2014 11.5071 73.8026 11.5071H76.0978Z" fill="#0063AB"/>
<path d="M77.3002 7.79102H82.1093L79.8413 14.8134H75.0322L77.3002 7.79102Z" fill="#0063AB"/>
<path d="M100.472 7.79098L100.445 7.9276L98.2042 14.8134H86.7826C85.6076 14.8134 84.7059 14.5401 84.0775 14.021C83.449 13.5018 83.1211 12.764 83.1211 11.835C83.1211 11.3158 83.2304 10.7693 83.4217 10.1682L83.6949 9.29382C83.8862 8.72001 84.1321 8.22817 84.4053 7.79098H94.4061L92.9579 9.21185H89.679C89.2691 9.21185 88.9412 9.2665 88.6953 9.40312C88.4767 9.53975 88.2854 9.78566 88.1761 10.1409C88.1215 10.3048 88.0668 10.4688 88.0668 10.66C88.0668 11.1792 88.4494 11.4525 89.1871 11.4525H94.4881L95.663 7.87295L95.6904 7.73633H100.472V7.79098Z" fill="#0063AB"/>
<path d="M102.548 7.79102H107.358L105.144 14.8134H100.253L102.548 7.79102Z" fill="#0063AB"/>
<path d="M121.621 7.79102L119.353 14.8134H114.544L116.839 7.79102H121.621Z" fill="#0063AB"/>
<path d="M31.3145 21.0159C33.7737 21.0432 45.1133 21.1525 57.8192 21.2892C57.9012 21.2892 57.9831 21.2892 58.0651 21.2892V21.0706C57.9831 21.0706 57.9012 21.0706 57.8192 21.0706C56.0158 21.0432 54.2943 21.0432 52.7095 21.0159C54.2943 20.9886 56.0158 20.9886 57.8192 20.9613C57.9012 20.9613 57.9831 20.9613 58.0651 20.9613V20.7427C57.9831 20.7427 57.9012 20.7427 57.8192 20.7427C45.1133 20.8793 33.7737 20.9886 31.3145 21.0159Z" fill="#353535"/>
<path d="M29.4287 24.2676C31.8879 24.295 43.2276 24.4043 55.9335 24.5409C56.0154 24.5409 56.0974 24.5409 56.1794 24.5409V24.3223C56.0974 24.3223 56.0154 24.3223 55.9335 24.3223C54.13 24.295 52.4086 24.295 50.8238 24.2676C52.4086 24.2403 54.13 24.2403 55.9335 24.213C56.0154 24.213 56.0974 24.213 56.1794 24.213V23.9944C56.0974 23.9944 56.0154 23.9944 55.9335 23.9944C43.2276 24.131 31.8879 24.2403 29.4287 24.2676Z" fill="#353535"/>
<path d="M44.4572 22.7101C45.6048 22.7101 50.9604 22.7648 56.9171 22.8467C56.9444 22.8467 56.9991 22.8467 57.0264 22.8467V22.7374C56.9991 22.7374 56.9444 22.7374 56.9171 22.7374C56.0701 22.7374 55.2503 22.7101 54.5126 22.7101C55.2503 22.7101 56.0701 22.6828 56.9171 22.6828C56.9444 22.6828 56.9991 22.6828 57.0264 22.6828V22.5735C56.9991 22.5735 56.9444 22.5735 56.9171 22.5735C50.9604 22.6281 45.6048 22.6828 44.4572 22.7101Z" fill="#353535"/>
<path d="M112.414 21.0159C109.955 21.0432 98.6149 21.1525 85.909 21.2892C85.827 21.2892 85.7451 21.2892 85.6631 21.2892V21.0706C85.7451 21.0706 85.827 21.0706 85.909 21.0706C87.7124 21.0432 89.4339 21.0432 91.0187 21.0159C89.4339 20.9886 87.7124 20.9886 85.909 20.9613C85.827 20.9613 85.7451 20.9613 85.6631 20.9613V20.7427C85.7451 20.7427 85.827 20.7427 85.909 20.7427C98.6149 20.8793 109.955 20.9886 112.414 21.0159Z" fill="#353535"/>
<path d="M110.555 24.2676C108.096 24.295 96.7565 24.4043 84.0506 24.5409C83.9686 24.5409 83.8867 24.5409 83.8047 24.5409V24.3223C83.8867 24.3223 83.9686 24.3223 84.0506 24.3223C85.854 24.295 87.5755 24.295 89.1603 24.2676C87.5755 24.2403 85.854 24.2403 84.0506 24.213C83.9686 24.213 83.8867 24.213 83.8047 24.213V23.9944C83.8867 23.9944 83.9686 23.9944 84.0506 23.9944C96.7565 24.131 108.096 24.2403 110.555 24.2676Z" fill="#353535"/>
<path d="M97.3847 22.7099C96.2371 22.7099 90.8815 22.7645 84.9247 22.8465C84.8974 22.8465 84.8428 22.8465 84.8154 22.8465V22.7372C84.8428 22.7372 84.8974 22.7372 84.9247 22.7372C85.7718 22.7372 86.5915 22.7099 87.3293 22.7099C86.5915 22.7099 85.7718 22.6825 84.9247 22.6825C84.8974 22.6825 84.8428 22.6825 84.8154 22.6825V22.5732C84.8428 22.5732 84.8974 22.5732 84.9247 22.5732C90.9088 22.6279 96.2371 22.6825 97.3847 22.7099Z" fill="#353535"/>
<path d="M64.732 20.1688H64.1582L62.5734 25.6883H61.699L62.1362 24.1308C62.0269 23.8303 61.781 23.6663 61.3711 23.6663L61.0979 24.65C61.0432 24.8139 61.0159 24.9232 60.9613 25.0325C60.9066 25.1418 60.852 25.2238 60.77 25.3058C60.5514 25.4971 60.3601 25.579 60.1962 25.579H58.9393C58.83 25.579 58.6933 25.4971 58.5294 25.3604C58.3654 25.2238 58.3381 24.9779 58.4474 24.6773L58.6933 23.7756H59.5131L59.2398 24.6773C59.2125 24.732 59.2671 24.8139 59.3491 24.8959C59.4038 24.9506 59.5131 24.9779 59.6224 24.9779C59.7317 24.9779 59.841 24.9779 59.8956 24.9506C59.9776 24.9232 60.0322 24.8959 60.0596 24.8686C60.1142 24.8413 60.1415 24.8139 60.1415 24.7593C60.1689 24.732 60.1689 24.6773 60.1689 24.65L60.6334 23.0652C60.688 22.8466 60.7153 22.6826 60.7153 22.6007C60.688 22.4367 60.5514 22.3821 60.3055 22.3821H59.5677C59.5404 22.3821 59.4857 22.3547 59.4311 22.3274C59.3764 22.3001 59.3491 22.2454 59.3218 22.1908C59.2945 22.1361 59.2671 22.0542 59.2671 21.9722C59.2671 21.8902 59.2672 21.7809 59.2945 21.6716L59.5404 20.7973C59.6224 20.524 59.8956 20.3054 60.3328 20.1415H59.3218L59.4857 19.595H64.8687L64.732 20.1688ZM63.2839 20.1688H60.9613C60.7973 20.2234 60.6607 20.3054 60.5514 20.4147C60.4421 20.524 60.3875 20.606 60.3601 20.7153L60.1689 21.3984C60.1415 21.4804 60.1415 21.535 60.1415 21.5623C60.1415 21.617 60.1689 21.6716 60.1962 21.7263C60.2235 21.7809 60.3601 21.8083 60.5514 21.8083H61.2072C61.6717 21.8083 61.8083 22.0542 61.6717 22.5187L61.5351 22.9832C61.699 22.9832 61.863 23.0105 62.0269 23.0652C62.1909 23.1198 62.3002 23.2018 62.3275 23.3384L63.2839 20.1688Z" fill="#353535"/>
<path d="M66.3172 20.1686H65.8254L64.2406 25.7154H63.3389L64.9237 20.1686H64.4865L64.6504 19.6221H66.4539L66.3172 20.1686Z" fill="#353535"/>
<path d="M69.1856 23.6114L68.8304 24.841C68.7484 25.1143 68.6391 25.3329 68.4752 25.4695C68.3112 25.6334 68.1199 25.6881 67.9013 25.6881H65.852C65.4968 25.6881 65.2782 25.6061 65.1689 25.4148C65.0596 25.2236 65.0596 24.9503 65.1689 24.5405L65.5241 23.3109H66.4258L66.0706 24.5405C65.9613 24.923 66.0979 25.1143 66.5078 25.1143H67.4368C67.5461 25.1143 67.6281 25.0596 67.7647 24.9777C67.874 24.8684 67.956 24.7591 67.9833 24.6498L68.3659 23.3655C68.4205 23.1742 68.3932 23.0376 68.2839 22.9556C68.2292 22.901 68.1473 22.8737 68.0653 22.8463C67.9833 22.819 67.8467 22.819 67.6554 22.819L67.8467 22.1359H68.0653C68.0926 22.1359 68.1473 22.1359 68.1746 22.1359C68.2292 22.1359 68.2566 22.1086 68.2566 22.1086C68.5571 22.0539 68.7484 21.9173 68.8304 21.6441L69.1309 20.6057C69.1583 20.4964 69.1583 20.3871 69.1036 20.2778C69.049 20.1685 68.967 20.1139 68.8577 20.0866H68.3112C68.2019 20.0866 68.0653 20.1685 67.9287 20.3052C67.9013 20.3325 67.8467 20.3871 67.8194 20.4418C67.7374 20.5511 67.7101 20.6331 67.6554 20.7697L67.4641 21.3981H66.5624L66.7537 20.7697C66.8084 20.5784 66.863 20.4145 66.945 20.3052C67.027 20.1959 67.1089 20.0866 67.2182 19.9773C67.3275 19.868 67.4368 19.786 67.5734 19.7313C67.7647 19.6221 67.9287 19.5947 68.1199 19.5947H69.4315C69.5681 19.5947 69.6501 19.6221 69.7321 19.6767C69.814 19.7313 69.8687 19.786 69.9507 19.8953C70.0326 19.9773 70.0873 20.0866 70.0873 20.1959C70.1146 20.3052 70.1146 20.4145 70.06 20.5784L69.814 21.3981C69.7321 21.6987 69.5681 21.972 69.3495 22.1906C69.2129 22.3272 69.1309 22.3818 69.0763 22.4365C68.9943 22.5184 68.885 22.5731 68.7484 22.6004C68.803 22.6277 68.885 22.6551 68.9123 22.7097C68.967 22.7644 68.9943 22.819 69.049 22.901C69.2402 23.0923 69.2676 23.3382 69.1856 23.6114Z" fill="#353535"/>
<path d="M75.3066 20.1688H74.7874L73.1752 25.743H70.2242C70.0056 25.743 69.8417 25.7157 69.7324 25.6884C69.6231 25.661 69.5411 25.5791 69.4864 25.4971C69.3498 25.3058 69.3498 25.0599 69.4318 24.732L69.787 23.5297C69.8417 23.3111 69.951 23.1472 70.0876 23.0105C70.2242 22.8739 70.3881 22.792 70.5794 22.792H71.0713C71.2079 22.792 71.3172 22.7646 71.3992 22.71C71.4811 22.6553 71.5358 22.5734 71.5631 22.4914L71.6997 22.0269C71.7544 21.8356 71.6997 21.7263 71.4811 21.7263H70.962C70.7161 21.7263 70.5521 21.6717 70.4975 21.535C70.4428 21.4257 70.4428 21.2345 70.5248 20.9612L70.7434 20.1688H70.3335L70.4975 19.6223H75.4705L75.3066 20.1688ZM73.8857 20.1688H71.6451L71.4538 20.8792C71.3718 21.1252 71.4538 21.2345 71.6724 21.1798H72.1916C72.3828 21.1798 72.5195 21.2345 72.5741 21.3711C72.6288 21.5077 72.6561 21.6443 72.6014 21.8356L72.3282 22.7373C72.2735 22.9013 72.1916 23.0379 72.0823 23.1472C71.9456 23.2565 71.809 23.3384 71.6451 23.3384H71.1532C70.8527 23.3384 70.6614 23.5024 70.5794 23.8303L70.3608 24.6227C70.2515 24.9779 70.3881 25.1692 70.716 25.1692H72.4648L73.8857 20.1688ZM71.6451 26.5627C71.5904 26.7813 71.4811 26.8633 71.3445 26.8633H70.6887C70.6068 26.8633 70.5521 26.836 70.4975 26.7813C70.4701 26.7267 70.4701 26.6447 70.4975 26.5354L70.5521 26.3988C70.6341 26.1529 70.7434 26.0436 70.9073 26.0436H71.5085C71.6997 26.0436 71.7817 26.1529 71.6997 26.3988L71.6451 26.5627Z" fill="#353535"/>
<path d="M76.9461 20.1688H76.4543L74.8695 25.7157H73.9678L75.5526 20.1688H75.1427L75.3067 19.6223H77.1101L76.9461 20.1688Z" fill="#353535"/>
<path d="M81.4551 20.1686H80.9086L79.2964 25.7428H76.7826C76.6186 25.7428 76.4547 25.7428 76.3454 25.7154C76.2361 25.6881 76.1268 25.6608 76.0175 25.6061C75.8809 25.5242 75.7716 25.3875 75.7443 25.2236C75.6896 25.0596 75.7169 24.8137 75.7989 24.5405L76.5367 21.9447C76.6186 21.6441 76.7826 21.3982 77.0285 21.2069C77.1651 21.0976 77.3017 21.0156 77.411 20.961C77.5203 20.9063 77.657 20.879 77.7663 20.879H79.7883L80.0069 20.1686H76.7279L76.8919 19.6221H81.6463L81.4551 20.1686ZM77.8209 26.6991C77.7663 26.9177 77.657 26.9997 77.5203 26.9997H76.8646C76.7826 26.9997 76.7279 26.9724 76.6733 26.9177C76.646 26.8631 76.646 26.7811 76.6733 26.6718L76.7279 26.5352C76.8099 26.2892 76.9192 26.1799 77.0832 26.1799H77.6843C77.8756 26.1799 77.9575 26.2892 77.8756 26.5352L77.8209 26.6991ZM78.5587 25.1689L79.6243 21.4528H78.0942C77.7389 21.4528 77.493 21.6441 77.3837 22.0266L76.7006 24.4312C76.6733 24.5405 76.646 24.6498 76.6733 24.7317C76.6733 24.8137 76.7006 24.8957 76.7553 24.9777C76.8099 25.1143 76.9465 25.1689 77.1378 25.1689H78.5587Z" fill="#353535"/>
<path d="M83.3131 20.1687H82.7667L81.2092 25.579H80.3075L81.865 20.1687H81.2911L81.4551 19.6222H82.0289L82.0835 19.4583C82.1109 19.349 82.1109 19.2397 82.0562 19.185C82.0016 19.1304 81.9196 19.0757 81.8376 19.0757H78.6953L78.8593 18.4473H82.4114C82.5754 18.4473 82.6847 18.4746 82.7393 18.5019C82.794 18.5292 82.876 18.5839 82.9306 18.6659C82.9306 18.6932 82.9579 18.7205 82.9853 18.7478C83.0126 18.8025 83.0126 18.8571 83.0399 18.9391C83.0672 19.0211 83.0672 19.1304 83.0399 19.2397L82.9306 19.6222H83.4771L83.3131 20.1687Z" fill="#353535"/>
<defs>
<linearGradient id="paint0_linear_2221_2517" x1="20.8528" y1="-7.24198" x2="21.1726" y2="-10.9729" gradientUnits="userSpaceOnUse">
<stop stop-color="#0063AB"/>
<stop offset="1" stop-color="#47003D"/>
</linearGradient>
<linearGradient id="paint1_linear_2221_2517" x1="49.0646" y1="-4.82384" x2="49.3844" y2="-8.55478" gradientUnits="userSpaceOnUse">
<stop stop-color="#0063AB"/>
<stop offset="1" stop-color="#47003D"/>
</linearGradient>
<linearGradient id="paint2_linear_2221_2517" x1="72.6313" y1="-2.80382" x2="72.9511" y2="-6.53476" gradientUnits="userSpaceOnUse">
<stop stop-color="#0063AB"/>
<stop offset="1" stop-color="#47003D"/>
</linearGradient>
<linearGradient id="paint3_linear_2221_2517" x1="80.5984" y1="-2.12091" x2="80.9182" y2="-5.85185" gradientUnits="userSpaceOnUse">
<stop stop-color="#0063AB"/>
<stop offset="1" stop-color="#47003D"/>
</linearGradient>
<linearGradient id="paint4_linear_2221_2517" x1="63.1467" y1="-3.61681" x2="63.4666" y2="-7.34775" gradientUnits="userSpaceOnUse">
<stop stop-color="#0063AB"/>
<stop offset="1" stop-color="#47003D"/>
</linearGradient>
<linearGradient id="paint5_linear_2221_2517" x1="93.1044" y1="-1.04899" x2="93.4242" y2="-4.77996" gradientUnits="userSpaceOnUse">
<stop stop-color="#0063AB"/>
<stop offset="1" stop-color="#47003D"/>
</linearGradient>
<linearGradient id="paint6_linear_2221_2517" x1="119.428" y1="1.20729" x2="119.748" y2="-2.52367" gradientUnits="userSpaceOnUse">
<stop stop-color="#0063AB"/>
<stop offset="1" stop-color="#47003D"/>
</linearGradient>
<linearGradient id="paint7_linear_2221_2517" x1="121.132" y1="1.35331" x2="121.451" y2="-2.37762" gradientUnits="userSpaceOnUse">
<stop stop-color="#0063AB"/>
<stop offset="1" stop-color="#47003D"/>
</linearGradient>
</defs>
</svg>
